<svg version="1.1" xmlns="http://www.w3.org/2000/svg" xmlns:xlink="http://www.w3.org/1999/xlink" width="78.78197" height="79.46621" viewBox="0,0,78.78197,79.46621"><g transform="translate(-181.10901,-68.2669)"><g data-paper-data="{&quot;isPaintingLayer&quot;:true}" fill-rule="nonzero" stroke="none" stroke-width="0" stroke-linecap="butt" stroke-linejoin="miter" stroke-miterlimit="10" stroke-dasharray="" stroke-dashoffset="0" style="mix-blend-mode: normal"><path d="M206.31573,71.46165l8.49511,5.43685l5.91502,-8.6316l6.13009,7.83669l8.33728,-4.7523l2.0021,9.18201l9.92591,-1.69804l-0.85106,9.97689l9.48611,2.13185l-4.21941,8.31441l8.3541,4.98207l-7.08981,7.41815l5.69061,7.14445l-9.19178,4.06494l2.85313,8.76635l-9.80656,0.53479l-0.93504,9.56183l-8.77522,-3.37191l-5.03933,8.66301l-7.55273,-5.74384l-6.01522,6.45486l-5.47712,-9.36206l-8.61896,3.69069l-1.65882,-10.10559l-8.77824,0.21311l2.03422,-9.17321l-8.50822,-3.81292l5.52146,-7.90931l-7.43434,-6.705l8.23363,-5.20803l-4.15428,-8.85892l9.67155,-1.47641l-0.53268,-10.34946l9.75904,1.4213z" fill="#c36a58"/><path d="M207.45595,74.39884l7.81222,4.9998l5.43953,-7.93774l5.63731,7.20673l7.66708,-4.37028l1.84116,8.4439l9.128,-1.56154l-0.78265,9.17488l8.72356,1.96048l-3.88023,7.64604l7.68254,4.58158l-6.51989,6.82183l5.23316,6.57013l-8.45289,3.73817l2.62378,8.06165l-9.01825,0.4918l-0.85988,8.79319l-8.06981,-3.10085l-4.63424,7.96662l-6.94559,-5.28211l-5.53168,5.93598l-5.03683,-8.60948l-7.92611,3.39401l-1.52547,-9.29324l-8.07259,0.19598l1.8707,-8.43581l-7.82427,-3.50641l5.07761,-7.27351l-6.83672,-6.16601l7.57176,-4.78938l-3.82033,-8.14678l8.89409,-1.35773l-0.48986,-9.5175l8.97455,1.30705z" fill-opacity="0.02353" fill="#000000"/></g></g></svg>