<svg version="1.1" xmlns="http://www.w3.org/2000/svg" xmlns:xlink="http://www.w3.org/1999/xlink" width="440.85713" height="215.59485" viewBox="0,0,440.85713,215.59485"><g transform="translate(-0.07144,-0.20257)"><g data-paper-data="{&quot;isPaintingLayer&quot;:true}" fill-rule="nonzero" stroke-width="5" stroke-linecap="butt" stroke-linejoin="miter" stroke-miterlimit="10" stroke-dasharray="" stroke-dashoffset="0" style="mix-blend-mode: normal"><path d="M17.09283,212.08357c-4.76077,0 -12.00918,-7.24841 -12.00918,-12.00918v-184.14881c0,-4.76077 7.24841,-12.00918 12.00918,-12.00918h405.96709c4.76077,0 12.85644,5.97752 12.85644,10.73829v185.84334c0,4.76077 -8.09568,11.58555 -12.85644,11.58555z" fill="#e4ddbd" stroke="#9e4826"/><path d="M14.72067,213.29741c-4.81629,0 -12.14923,-7.33294 -12.14923,-12.14923v-186.29638c0,-4.81629 7.33294,-12.14923 12.14923,-12.14923h410.70153c4.81629,0 13.00637,6.04723 13.00637,10.86352v188.01067c0,4.81629 -8.19009,11.72066 -13.00637,11.72066z" fill="none" stroke="#a94d29"/></g></g></svg>